# xmcd
#
# Track frame offsets:
#	150
#	21014
#	52868
#	99197
#	127678
#	152740
#	180528
#	205937
#	225875
#	253664
#	270145
#
# Disc length: 3841 seconds
#
# Revision: 2
# Processed by: cddbd v1.5.2PL0 Copyright (c) Steve Scherf et al.
# Submitted via: EZCDAudioConverter 2.1.7.1
#
DISCID=720eff0b
DTITLE=My Life With The Thrill Kill Kult - Some Have To Dance, Some Have To Ki
DTITLE=ll
DYEAR=1900
DGENRE=
TTITLE0=Sexy Sucker
TTITLE1=The Devil Does Drugs
TTITLE2=A Girl Doesn't Get Killed By A Make Believe Lover... Cuz It's Hot
TTITLE3=Kooler Than Jesus
TTITLE4=A Daisy Chain For Satan [Acid And Flowers Mix]
TTITLE5=LeatherSex
TTITLE6=Sex On Wheelz [Danger Baby Mix]
TTITLE7=Final Blindness
TTITLE8=Blue Buddha [Ultra Flesh Mix]
TTITLE9=Glamour Is A Rocky Road [Live]
TTITLE10=Lucifer's Flowers
EXTD=
EXTT0=
EXTT1=
EXTT2=
EXTT3=
EXTT4=
EXTT5=
EXTT6=
EXTT7=
EXTT8=
EXTT9=
EXTT10=
PLAYORDER=
